<svg xmlns="http://www.w3.org/2000/svg" width="900" height="260" viewBox="0 0 900 260" role="img" aria-label="Candythink — Complexity Made Sweet">
  <defs>
    <linearGradient id="candyGrad_lumduan" x1="0" y1="0" x2="1" y2="1">
      <stop offset="0%" stop-color="#FFB3D1"/>
      <stop offset="50%" stop-color="#FFD6A5"/>
      <stop offset="100%" stop-color="#C7F0DB"/>
    </linearGradient>
  </defs>

  <!-- background -->
  <rect x="0" y="0" width="900" height="260" rx="28" ry="28" fill="url(#candyGrad_lumduan)"/>

  <!-- candy glyph (left) -->
  <g>
    <polygon points="58,130 16,104 16,156" fill="#E85A9C" opacity="0.9"/>
    <polygon points="142,130 184,104 184,156" fill="#E85A9C" opacity="0.9"/>
    <circle cx="100" cy="130" r="46" fill="#E85A9C"/>
    <circle cx="100" cy="130" r="46" fill="none" stroke="#ffffff" stroke-width="3" opacity="0.5"/>
    <path d="M 72 114 Q 100 150 128 148" stroke="#ffffff" stroke-width="6" fill="none" opacity="0.55" stroke-linecap="round"/>
    <path d="M 80 150 Q 100 112 120 114" stroke="#ffffff" stroke-width="6" fill="none" opacity="0.4" stroke-linecap="round"/>
    <circle cx="84" cy="112" r="10" fill="#ffffff" opacity="0.6"/>
  </g>

  <!-- confetti dots (top-right) -->
  <circle cx="744" cy="48"  r="20" fill="#E85A9C" opacity="0.85"/>
  <circle cx="816" cy="92"  r="13" fill="#FFC36B" opacity="0.9"/>
  <circle cx="700" cy="84"  r="9"  fill="#9B7BD8" opacity="0.9"/>
  <circle cx="848" cy="152" r="17" fill="#7BC9B0" opacity="0.85"/>
  <circle cx="772" cy="172" r="11" fill="#E85A9C" opacity="0.8"/>
  <circle cx="704" cy="156" r="7"  fill="#FFC36B" opacity="0.85"/>
  <circle cx="824" cy="208" r="9"  fill="#9B7BD8" opacity="0.7"/>

  <!-- text -->
  <g font-family="'Segoe UI','Helvetica Neue',Helvetica,Arial,sans-serif" text-rendering="geometricPrecision">
    <text x="210" y="116" font-size="62" font-weight="800" letter-spacing="2" fill="#3A2A4D">CANDYTHINK</text>
    <text x="212" y="156" font-size="26" font-weight="600" fill="#6A5A7A">Complexity Made Sweet</text>
    <text x="212" y="190" font-size="16" font-weight="500" fill="#8A7A9A">quant trading systems · SET/TFEX · crypto · Singapore next</text>
  </g>
</svg>
